<?xml version="1.0" encoding="utf-8"?>
<!-- Generator: Adobe Illustrator 22.0.1, SVG Export Plug-In . SVG Version: 6.00 Build 0)  -->
<svg version="1.1" id="Слой_1" xmlns="http://www.w3.org/2000/svg" xmlns:xlink="http://www.w3.org/1999/xlink" x="0px" y="0px"
	 viewBox="0 0 841.9 595.3" style="enable-background:new 0 0 841.9 595.3;" xml:space="preserve">
<style type="text/css">
	.st0{fill:#FCEE21;}
	.st1{fill:none;}
	.st2{font-family:'MyriadPro-Regular';}
	.st3{font-size:109px;}
</style>
<g>
	<circle class="st0" cx="153.7" cy="271.7" r="116.9"/>
	<g id="_x33_">
		<path d="M220.3,338.4h-121c-0.7,0-1.3-0.6-1.3-1.3v-6.7c0-0.7,0.6-1.3,1.3-1.3h121c0.7,0,1.3,0.6,1.3,1.3v6.7
			C221.6,337.8,221,338.4,220.3,338.4z"/>
		<path d="M218.9,236.7v96.8c0,0.7-0.6,1.3-1.3,1.3h-6.7c-0.7,0-1.3-0.6-1.3-1.3v-96.8c0-0.7,0.6-1.3,1.3-1.3h6.7
			C218.4,235.4,218.9,236,218.9,236.7z"/>
		<path d="M228.7,226.1L201.8,263c-0.4,0.6-1.3,0.7-1.8,0.3l-5.4-4c-0.6-0.4-0.7-1.3-0.3-1.8l26.9-36.9c0.4-0.6,1.3-0.7,1.8-0.3
			l5.4,4C229,224.7,229.2,225.5,228.7,226.1z"/>
		<g>
			<circle cx="92.3" cy="334.9" r="13.2"/>
			<circle cx="214.3" cy="334.9" r="13.2"/>
			<circle cx="214.3" cy="334.9" r="5.3"/>
			<circle cx="92.3" cy="334.9" r="5.3"/>
		</g>
		<g>
			<path d="M158.8,336.2h-10.5c-1.8,0-3.3-1.5-3.3-3.3v-51.1c0-1.8,1.5-3.3,3.3-3.3h10.5c1.8,0,3.3,1.5,3.3,3.3v51.1
				C162.1,334.7,160.6,336.2,158.8,336.2z"/>
			<path d="M162.7,288.9l-8,6.7c-1.4,1.2-3.5,1-4.6-0.4L124.6,265c-1.2-1.4-1-3.5,0.4-4.6l8-6.7c1.4-1.2,3.5-1,4.6,0.4l25.5,30.2
				C164.2,285.6,164.1,287.7,162.7,288.9z"/>
			<path d="M112.8,310.9l-9.1-5.2c-1.6-0.9-2.1-2.9-1.2-4.5l28-48.5c0.9-1.6,2.9-2.1,4.5-1.2l9.1,5.2c1.6,0.9,2.1,2.9,1.2,4.5
				l-28,48.5C116.4,311.3,114.4,311.8,112.8,310.9z"/>
			<path d="M187.8,242.1l-8,6.7c-1.4,1.2-3.5,1-4.6-0.4l-25.5-30.2c-1.2-1.4-1-3.5,0.4-4.6l8-6.7c1.4-1.2,3.5-1,4.6,0.4l25.5,30.2
				C189.3,238.9,189.1,241,187.8,242.1z"/>
			<path d="M211.5,234.2v10.5c0,1.8-1.5,3.3-3.3,3.3l-34.1,0c-1.8,0-3.3-1.5-3.3-3.3v-10.5c0-1.8,1.5-3.3,3.3-3.3l34.1,0
				C210.1,230.9,211.5,232.4,211.5,234.2z"/>
			<path d="M120.2,296.1v10.5c0,1.8-1.5,3.3-3.3,3.3H82.9c-1.8,0-3.3-1.5-3.3-3.3v-10.5c0-1.8,1.5-3.3,3.3-3.3h34.1
				C118.8,292.8,120.2,294.3,120.2,296.1z"/>
			<path d="M135.2,272.8l-9.3-4.9c-1.6-0.8-2.2-2.8-1.4-4.4l28.2-53.3c0.8-1.6,2.8-2.2,4.4-1.4l9.3,4.9c1.6,0.8,2.2,2.8,1.4,4.4
				l-28.2,53.3C138.7,273.1,136.7,273.7,135.2,272.8z"/>
			<circle cx="171.6" cy="193.3" r="13.8"/>
		</g>
	</g>
</g>
<rect x="305.1" y="154.9" class="st1" width="484.4" height="233.8"/>
<text transform="matrix(1 0 0 1 305.077 232.2408)"><tspan x="0" y="0" class="st2 st3">FIRO</tspan><tspan x="0" y="130.8" class="st2 st3">SCOOTER</tspan></text>
</svg>
