<?xml version="1.0" encoding="utf-8"?>
<!-- Generator: Adobe Illustrator 22.0.1, SVG Export Plug-In . SVG Version: 6.00 Build 0)  -->
<svg version="1.1" id="Слой_1" xmlns="http://www.w3.org/2000/svg" xmlns:xlink="http://www.w3.org/1999/xlink" x="0px" y="0px"
	 viewBox="0 0 841.9 595.3" style="enable-background:new 0 0 841.9 595.3;" xml:space="preserve">
<style type="text/css">
	.st0{fill:#FCEE21;}
	.st1{fill:none;}
	.st2{font-family:'ArialMT';}
	.st3{font-size:109.5069px;}
</style>
<g>
	<circle class="st0" cx="135.4" cy="297.5" r="117.4"/>
	<g id="_x33_">
		<path d="M202.3,364.6H80.8c-0.7,0-1.3-0.6-1.3-1.3v-6.7c0-0.7,0.6-1.3,1.3-1.3h121.6c0.7,0,1.3,0.6,1.3,1.3v6.7
			C203.6,364,203,364.6,202.3,364.6z"/>
		<path d="M200.9,262.4v97.3c0,0.7-0.6,1.3-1.3,1.3h-6.7c-0.7,0-1.3-0.6-1.3-1.3v-97.3c0-0.7,0.6-1.3,1.3-1.3h6.7
			C200.4,261.1,200.9,261.7,200.9,262.4z"/>
		<path d="M210.8,251.7l-27,37.1c-0.4,0.6-1.3,0.7-1.8,0.3l-5.4-4c-0.6-0.4-0.7-1.3-0.3-1.8l27-37.1c0.4-0.6,1.3-0.7,1.8-0.3l5.4,4
			C211.1,250.3,211.3,251.1,210.8,251.7z"/>
		<g>
			<circle cx="73.7" cy="361" r="13.3"/>
			<circle cx="196.3" cy="361" r="13.3"/>
			<circle cx="196.3" cy="361" r="5.3"/>
			<circle cx="73.7" cy="361" r="5.3"/>
		</g>
		<g>
			<path d="M134.7,358.4h-10.5c-1.8,0-3.3-1.5-3.3-3.3v-51.3c0-1.8,1.5-3.3,3.3-3.3h10.5c1.8,0,3.3,1.5,3.3,3.3v51.3
				C138,356.9,136.5,358.4,134.7,358.4z"/>
			<path d="M136.9,305.8l-8,6.7c-1.4,1.2-3.5,1-4.6-0.4l-25.6-30.3c-1.2-1.4-1-3.5,0.4-4.6l8-6.7c1.4-1.2,3.5-1,4.6,0.4l25.6,30.3
				C138.4,302.5,138.3,304.6,136.9,305.8z"/>
			<path d="M85.5,327.9l-9.1-5.2c-1.6-0.9-2.1-2.9-1.2-4.5l28.1-48.7c0.9-1.6,2.9-2.1,4.5-1.2l9.1,5.2c1.6,0.9,2.1,2.9,1.2,4.5
				l-28.1,48.7C89.2,328.3,87.2,328.8,85.5,327.9z"/>
			<path d="M165.9,266.2l-8,6.7c-1.4,1.2-3.5,1-4.6-0.4l-25.6-30.3c-1.2-1.4-1-3.5,0.4-4.6l8-6.7c1.4-1.2,3.5-1,4.6,0.4l25.6,30.3
				C167.4,263,167.2,265.1,165.9,266.2z"/>
			<path d="M193.5,259.9v10.5c0,1.8-1.5,3.3-3.3,3.3h-34.3c-1.8,0-3.3-1.5-3.3-3.3v-10.5c0-1.8,1.5-3.3,3.3-3.3h34.3
				C192.1,256.6,193.5,258.1,193.5,259.9z"/>
			<path d="M90.2,314.3v10.5c0,1.8-1.5,3.3-3.3,3.3H52.7c-1.8,0-3.3-1.5-3.3-3.3v-10.5c0-1.8,1.5-3.3,3.3-3.3H87
				C88.8,311,90.2,312.5,90.2,314.3z"/>
			<path d="M108,289.7l-9.3-4.9c-1.6-0.8-2.2-2.8-1.4-4.4l28.3-53.5c0.8-1.6,2.8-2.2,4.4-1.4l9.3,4.9c1.6,0.8,2.2,2.8,1.4,4.4
				l-28.3,53.5C111.6,290,109.6,290.6,108,289.7z"/>
			<circle cx="147" cy="211.1" r="13.9"/>
		</g>
	</g>
</g>
<rect x="287.5" y="180.2" class="st1" width="486.7" height="234.9"/>
<text transform="matrix(1 0 0 1 287.5083 257.9056)" class="st2 st3">FIRO</text>
<text transform="matrix(1 0 0 1 287.5083 389.3143)" class="st2 st3">SCOOTER</text>
</svg>
